<?xml version="1.0" encoding="utf-8"?>
<!-- Generator: Adobe Illustrator 15.1.0, SVG Export Plug-In  -->
<!DOCTYPE svg PUBLIC "-//W3C//DTD SVG 1.1//EN" "http://www.w3.org/Graphics/SVG/1.1/DTD/svg11.dtd" [
	<!ENTITY ns_flows "http://ns.adobe.com/Flows/1.0/">
]>
<svg version="1.1"
	 xmlns="http://www.w3.org/2000/svg" xmlns:xlink="http://www.w3.org/1999/xlink" xmlns:a="http://ns.adobe.com/AdobeSVGViewerExtensions/3.0/"
	 x="0px" y="0px" width="80px" height="80px" viewBox="0 0 80 80" overflow="visible" enable-background="new 0 0 80 80"
	 xml:space="preserve">
<defs>
</defs>
<path fill="#F2F2F2" d="M72,0H8C3.6,0,0,3.6,0,8v64c0,4.4,3.6,8,8,8h64c4.4,0,8-3.6,8-8V8C80,3.6,76.4,0,72,0z M24,68H12V32h12V68z
	 M18,25.2c-4,0-7.2-3.2-7.2-7.2s3.2-7.2,7.2-7.2s7.2,3.2,7.2,7.2S22,25.2,18,25.2z M68,68H56V46.8c0-3.2-2.8-6-6-6s-6,2.8-6,6V68H32
	V32h12v4.8c2-3.2,6.4-5.6,10-5.6c7.6,0,14,6.399,14,14V68z"/>
</svg>
