<?xml version="1.0" encoding="utf-8"?>
<!-- Generator: Adobe Illustrator 15.1.0, SVG Export Plug-In  -->
<!DOCTYPE svg PUBLIC "-//W3C//DTD SVG 1.1//EN" "http://www.w3.org/Graphics/SVG/1.1/DTD/svg11.dtd" [
	<!ENTITY ns_flows "http://ns.adobe.com/Flows/1.0/">
]>
<svg version="1.1"
	 xmlns="http://www.w3.org/2000/svg" xmlns:xlink="http://www.w3.org/1999/xlink" xmlns:a="http://ns.adobe.com/AdobeSVGViewerExtensions/3.0/"
	 x="0px" y="0px" width="60px" height="80px" viewBox="0 0 60 80" overflow="visible" enable-background="new 0 0 60 80"
	 xml:space="preserve">
<defs>
</defs>
<path fill="#F2F2F2" d="M24.666,52.914C22.637,63.93,20.166,74.486,12.836,80c-2.26-16.648,3.321-29.148,5.916-42.418
	c-4.419-7.717,0.531-23.248,9.855-19.42c11.471,4.707-9.935,28.688,4.434,31.686c15,3.125,21.133-26.998,11.828-36.797
	C31.424-1.098,5.743,12.727,8.897,32.98c0.769,4.953,5.699,6.453,1.967,13.283c-8.6-1.975-11.168-9.012-10.836-18.399
	C0.561,12.509,13.333,1.754,26.141,0.27c16.205-1.883,31.408,6.168,33.508,21.976c2.358,17.84-7.312,37.168-24.64,35.772
	C30.317,57.645,28.346,55.232,24.666,52.914z"/>
</svg>
